<mxfile host="app.diagrams.net" modified="2020-12-11T09:35:38.546Z" agent="5.0 (Macintosh; Intel Mac OS X 10_14_6) AppleWebKit/537.36 (KHTML, like Gecko) Chrome/87.0.4280.67 Safari/537.36" etag="5-GkKIwUqBk8wly4G3m7" version="13.10.4" type="github">
  <diagram id="29_0aBWKKXaPgr2YoTyp" name="Page-1">
    <mxGraphModel dx="882" dy="566" grid="1" gridSize="10" guides="1" tooltips="1" connect="1" arrows="1" fold="1" page="1" pageScale="1" pageWidth="850" pageHeight="1100" math="0" shadow="0">
      <root>
        <mxCell id="0" />
        <mxCell id="1" parent="0" />
        <mxCell id="hZKU0158LKa5IuQOms0X-1" value="" style="rounded=0;whiteSpace=wrap;html=1;" vertex="1" parent="1">
          <mxGeometry x="120" y="140" width="520" height="230" as="geometry" />
        </mxCell>
        <mxCell id="hZKU0158LKa5IuQOms0X-2" value="&lt;font style=&quot;font-size: 18px&quot;&gt;VM Stack&lt;br&gt;虚拟机栈&lt;br&gt;&lt;/font&gt;" style="rounded=0;whiteSpace=wrap;html=1;strokeColor=#9999FF;fillColor=#9999FF;" vertex="1" parent="1">
          <mxGeometry x="140" y="170" width="120" height="60" as="geometry" />
        </mxCell>
        <mxCell id="hZKU0158LKa5IuQOms0X-3" value="&lt;font style=&quot;font-size: 18px&quot;&gt;Heap&lt;br&gt;堆&lt;br&gt;&lt;/font&gt;" style="rounded=0;whiteSpace=wrap;html=1;strokeColor=#9999FF;fillColor=#9999FF;" vertex="1" parent="1">
          <mxGeometry x="305" y="170" width="120" height="60" as="geometry" />
        </mxCell>
        <mxCell id="hZKU0158LKa5IuQOms0X-6" value="&lt;font style=&quot;font-size: 18px&quot;&gt;Method Area&lt;br&gt;方法区&lt;br&gt;&lt;/font&gt;" style="rounded=0;whiteSpace=wrap;html=1;strokeColor=#9999FF;fillColor=#9999FF;" vertex="1" parent="1">
          <mxGeometry x="460" y="170" width="150" height="60" as="geometry" />
        </mxCell>
        <mxCell id="hZKU0158LKa5IuQOms0X-8" value="&lt;font style=&quot;font-size: 18px&quot;&gt;PC Register&lt;br&gt;程序计数器&lt;br&gt;&lt;/font&gt;" style="rounded=0;whiteSpace=wrap;html=1;strokeColor=#9999FF;fillColor=#9999FF;" vertex="1" parent="1">
          <mxGeometry x="140" y="270" width="120" height="60" as="geometry" />
        </mxCell>
        <mxCell id="hZKU0158LKa5IuQOms0X-9" value="&lt;font style=&quot;font-size: 18px&quot;&gt;Native Method Stack&lt;br&gt;本地方法栈&lt;br&gt;&lt;/font&gt;" style="rounded=0;whiteSpace=wrap;html=1;strokeColor=#9999FF;fillColor=#9999FF;" vertex="1" parent="1">
          <mxGeometry x="305" y="270" width="305" height="60" as="geometry" />
        </mxCell>
        <mxCell id="hZKU0158LKa5IuQOms0X-15" value="" style="edgeStyle=orthogonalEdgeStyle;rounded=0;orthogonalLoop=1;jettySize=auto;html=1;" edge="1" parent="1" source="hZKU0158LKa5IuQOms0X-11" target="hZKU0158LKa5IuQOms0X-14">
          <mxGeometry relative="1" as="geometry" />
        </mxCell>
        <mxCell id="hZKU0158LKa5IuQOms0X-11" value="&lt;font style=&quot;font-size: 18px&quot;&gt;Class File&lt;/font&gt;" style="text;html=1;strokeColor=none;fillColor=none;align=center;verticalAlign=middle;whiteSpace=wrap;rounded=0;" vertex="1" parent="1">
          <mxGeometry x="300" y="70" width="110" height="20" as="geometry" />
        </mxCell>
        <mxCell id="hZKU0158LKa5IuQOms0X-12" value="Runtime Data Area" style="text;html=1;strokeColor=none;fillColor=none;align=center;verticalAlign=middle;whiteSpace=wrap;rounded=0;" vertex="1" parent="1">
          <mxGeometry x="80" y="110" width="170" height="20" as="geometry" />
        </mxCell>
        <mxCell id="hZKU0158LKa5IuQOms0X-14" value="&lt;font style=&quot;font-size: 18px&quot;&gt;Class Loader&lt;/font&gt;" style="whiteSpace=wrap;html=1;strokeColor=#d6b656;fillColor=#FFFF00;" vertex="1" parent="1">
          <mxGeometry x="460" y="50" width="120" height="60" as="geometry" />
        </mxCell>
        <mxCell id="hZKU0158LKa5IuQOms0X-17" value="" style="endArrow=classic;html=1;entryX=0.5;entryY=1;entryDx=0;entryDy=0;" edge="1" parent="1" target="hZKU0158LKa5IuQOms0X-14">
          <mxGeometry width="50" height="50" relative="1" as="geometry">
            <mxPoint x="520" y="140" as="sourcePoint" />
            <mxPoint x="570" y="95" as="targetPoint" />
          </mxGeometry>
        </mxCell>
        <mxCell id="hZKU0158LKa5IuQOms0X-18" value="" style="endArrow=classic;html=1;exitX=0.25;exitY=1;exitDx=0;exitDy=0;entryX=0.712;entryY=0;entryDx=0;entryDy=0;entryPerimeter=0;" edge="1" parent="1" source="hZKU0158LKa5IuQOms0X-14" target="hZKU0158LKa5IuQOms0X-1">
          <mxGeometry width="50" height="50" relative="1" as="geometry">
            <mxPoint x="390" y="330" as="sourcePoint" />
            <mxPoint x="440" y="280" as="targetPoint" />
          </mxGeometry>
        </mxCell>
        <mxCell id="hZKU0158LKa5IuQOms0X-19" value="&lt;font style=&quot;font-size: 18px&quot;&gt;Execution Engine&lt;/font&gt;" style="rounded=0;whiteSpace=wrap;html=1;strokeColor=#9999FF;fillColor=#A9C4EB;" vertex="1" parent="1">
          <mxGeometry x="120" y="440" width="160" height="60" as="geometry" />
        </mxCell>
        <mxCell id="hZKU0158LKa5IuQOms0X-30" style="edgeStyle=orthogonalEdgeStyle;rounded=0;orthogonalLoop=1;jettySize=auto;html=1;exitX=1;exitY=0.5;exitDx=0;exitDy=0;entryX=0;entryY=0.5;entryDx=0;entryDy=0;" edge="1" parent="1" source="hZKU0158LKa5IuQOms0X-20" target="hZKU0158LKa5IuQOms0X-28">
          <mxGeometry relative="1" as="geometry" />
        </mxCell>
        <mxCell id="hZKU0158LKa5IuQOms0X-20" value="&lt;font style=&quot;font-size: 18px&quot;&gt;Native Interface&lt;/font&gt;" style="rounded=0;whiteSpace=wrap;html=1;strokeColor=#b85450;fillColor=#f8cecc;" vertex="1" parent="1">
          <mxGeometry x="360" y="440" width="150" height="60" as="geometry" />
        </mxCell>
        <mxCell id="hZKU0158LKa5IuQOms0X-22" value="" style="endArrow=classic;html=1;exitX=0.102;exitY=1.017;exitDx=0;exitDy=0;exitPerimeter=0;entryX=0.331;entryY=0;entryDx=0;entryDy=0;entryPerimeter=0;" edge="1" parent="1" source="hZKU0158LKa5IuQOms0X-1" target="hZKU0158LKa5IuQOms0X-19">
          <mxGeometry width="50" height="50" relative="1" as="geometry">
            <mxPoint x="390" y="290" as="sourcePoint" />
            <mxPoint x="440" y="240" as="targetPoint" />
          </mxGeometry>
        </mxCell>
        <mxCell id="hZKU0158LKa5IuQOms0X-23" value="" style="endArrow=classic;html=1;" edge="1" parent="1">
          <mxGeometry width="50" height="50" relative="1" as="geometry">
            <mxPoint x="237" y="440" as="sourcePoint" />
            <mxPoint x="237" y="370" as="targetPoint" />
          </mxGeometry>
        </mxCell>
        <mxCell id="hZKU0158LKa5IuQOms0X-24" value="" style="endArrow=classic;html=1;entryX=0.558;entryY=1.009;entryDx=0;entryDy=0;entryPerimeter=0;" edge="1" parent="1" target="hZKU0158LKa5IuQOms0X-1">
          <mxGeometry width="50" height="50" relative="1" as="geometry">
            <mxPoint x="410" y="440" as="sourcePoint" />
            <mxPoint x="460" y="390" as="targetPoint" />
          </mxGeometry>
        </mxCell>
        <mxCell id="hZKU0158LKa5IuQOms0X-26" value="" style="endArrow=classic;html=1;entryX=0.64;entryY=0;entryDx=0;entryDy=0;entryPerimeter=0;" edge="1" parent="1" target="hZKU0158LKa5IuQOms0X-20">
          <mxGeometry width="50" height="50" relative="1" as="geometry">
            <mxPoint x="456" y="372" as="sourcePoint" />
            <mxPoint x="454" y="430" as="targetPoint" />
          </mxGeometry>
        </mxCell>
        <mxCell id="hZKU0158LKa5IuQOms0X-27" value="" style="endArrow=classic;html=1;exitX=1;exitY=0.5;exitDx=0;exitDy=0;" edge="1" parent="1" source="hZKU0158LKa5IuQOms0X-19" target="hZKU0158LKa5IuQOms0X-20">
          <mxGeometry width="50" height="50" relative="1" as="geometry">
            <mxPoint x="390" y="290" as="sourcePoint" />
            <mxPoint x="440" y="240" as="targetPoint" />
          </mxGeometry>
        </mxCell>
        <mxCell id="hZKU0158LKa5IuQOms0X-28" value="&lt;font style=&quot;font-size: 18px&quot;&gt;Native Libararie&lt;/font&gt;" style="text;html=1;strokeColor=none;fillColor=none;align=center;verticalAlign=middle;whiteSpace=wrap;rounded=0;" vertex="1" parent="1">
          <mxGeometry x="580" y="460" width="150" height="20" as="geometry" />
        </mxCell>
      </root>
    </mxGraphModel>
  </diagram>
</mxfile>
